<svg viewBox="0 0 128 128" xmlns="http://www.w3.org/2000/svg">
   <path d="M99 110H17c-.6 0-1-.4-1-1V15c0-.6.4-1 1-1h82c.6 0 1 .4 1 1v94c0 .6-.4 1-1 1z" fill="#fff3e0"
      stroke="#424242" stroke-width=".3" stroke-linejoin="round" paint-order="markers fill stroke" />
   <path d="M93 94H23c-.6 0-1-.4-1-1V21c0-.6.4-1 1-1h70c.6 0 1 .4 1 1v72c0 .6-.4 1-1 1z" fill="#263238" />
   <path
      d="M67 27.6l-1 2.3.9.4.8-1.8 2.7 1.3-5.9 12.7-2.7-1.3.8-1.8-.8-.4-1 2.3c-.1.3 0 .5.2.7l3.6 1.7c.3.1.5 0 .7-.2l6.3-13.6c.1-.3 0-.5-.2-.7l-3.6-1.7c-.3-.2-.6-.1-.8.1zm-19.2 49v3.2l-2.1 1.3-1.8-.8 2.1-4.5z" />
   <path fill="#3E2723" d="M49.5 73l-.2 3.3-2.3 2.1-1.8-.8 2.5-5.5z" />
   <path d="M62 45.7v2.2l-2.8 6-1.3.9-7.3-3.4 4.2-9z" />
   <path
      d="M54.1 63l.6 2.9-2.1 4.5-1.8-.1c-.2.5-.8.7-1.3.5l-1.8-.8c-.5-.2-.7-.8-.5-1.3l3.3-7.3c.2-.5.8-.7 1.3-.5l1.8.8c.5.2.7.8.5 1.3zM40.4 83.1l-1.8-.8c-.5-.2-1.1 0-1.3.5l-5 10.9c-.2.5 0 1.1.5 1.3l1.8.8c.5.2 1.1 0 1.3-.5l.4-.9 3-4.5 1.2-4.6.4-.9c.2-.5 0-1.1-.5-1.3zm34.1-66.9l-1.8-.8c-.5-.2-1.1 0-1.3.5L68 23.1c-.2.5 0 1.1.5 1.3l1.8.8c.5.2 1.1 0 1.3-.5l1.5-.8 2.3-5-.4-1.4c.2-.5 0-1.1-.5-1.3z"
      fill="#FFAB00" />
   <path fill="#4E342E" d="M44.5 83.9l-.1 2.6-5 10.9-1.6 1-1.5-4 4.2-9.1z" />
   <path fill="#424242" d="M110.2 27.1L81.1 13.8l-3 1.7-38.8 84.3.9 3 29 13.4 3-1.7 39.2-85.2z" />
   <path
      d="M37.4 101.5c-.5-.2-.7-.8-.5-1.3L77.1 13c.2-.5.8-.7 1.3-.5l2.7 1.3-41 89-2.7-1.3zm72.8-74.4l-41 89 2.7 1.3c.5.2 1.1 0 1.3-.5l40.1-87.2c.2-.5 0-1.1-.5-1.3.1 0-2.6-1.3-2.6-1.3z"
      fill="#212121" />
   <path fill="#BBDEFB" d="M53.265 50.48l2.508-5.451 3.634 1.672-2.508 5.45z" />
   <circle cx="77.2" cy="58.2" transform="rotate(-65.298 77.198 58.182)" r="17" />
   <path d="M59.2 63c-.5.2-1 .7-1.2 1.2-.6 1.3 0 2.7 1.2 3.3.5.2 1.1.3 1.6.1l5.8-1.1-2.4-6.1-5 2.6z" fill="#212121" />
   <circle cx="60.2" cy="65.2" fill="#FFAB00" transform="rotate(-65.293 60.203 65.22)" r="1.5" />
   <circle cx="77.2" cy="58.2" fill="#212121" transform="rotate(-65.298 77.198 58.182)" r="14" />
   <circle cx="77.2" cy="58.2" fill="#0D47A1" transform="rotate(-65.298 77.198 58.182)" r="9" />
</svg>